<svg xmlns="http://www.w3.org/2000/svg" xmlns:xlink="http://www.w3.org/1999/xlink" width="25" height="25" viewBox="0 0 25 25"><defs><path id="30swa" d="M223.95 346.18l-2.33.83a.48.48 0 0 1-.62-.63l.82-2.33zm16.44-9.52l4.33 4.33c.37.37.37.98 0 1.36l-5.37 5.37a.96.96 0 0 1-1.36 0l-5.57-5.57 1.36-1.36 4.89 4.89 4-4.01-1.23-1.25-1.25 1.25-1.36-1.36 1.25-1.25-1.05-1.04-2 2-1.25-1.24 3.37-3.36zm-.2-5l-13.24 13.22-.7-1.22-1.44-.48-.48-1.44-1.22-.7 13.23-13.23zm2.15-7.14l1.13 1.14c.76.75.75 1.96 0 2.71l-1.35 1.36-3.85-3.85 1.36-1.35a1.92 1.92 0 0 1 2.71 0zm-15.33-1.24l4.33 4.33 1.24 1.24-3.36 3.37-1.25-1.25 2.01-2-1.04-1.05-1.25 1.25-1.36-1.36 1.25-1.25-1.25-1.24-4 4.01 4.88 4.9-1.36 1.35-5.57-5.57a.96.96 0 0 1 0-1.36l5.37-5.37a.96.96 0 0 1 1.36 0z"/></defs><g><g transform="translate(-220 -323)"><use fill="#27ae60" xlink:href="#30swa"/></g></g></svg>