<svg xmlns="http://www.w3.org/2000/svg" viewBox="0 0 11 11"><path d="M5.5,7.55A2.06,2.06,0,1,1,7.55,5.5,2.06,2.06,0,0,1,5.5,7.55ZM9.71,6a4.37,4.37,0,0,0,0-.54A3.3,3.3,0,0,0,9.7,5l1.2-.91A.28.28,0,0,0,11,3.71L9.83,1.8a.29.29,0,0,0-.35-.12l-1.41.55a4.17,4.17,0,0,0-1-.54L6.91.23A.28.28,0,0,0,6.63,0H4.37a.27.27,0,0,0-.28.23L3.88,1.69a4.29,4.29,0,0,0-1,.54L1.52,1.68a.28.28,0,0,0-.35.12L0,3.71a.26.26,0,0,0,.07.35L1.31,5A3.15,3.15,0,0,0,1.3,6L.1,6.94A.28.28,0,0,0,0,7.29L1.17,9.2a.29.29,0,0,0,.35.12l1.41-.55a4.17,4.17,0,0,0,1,.54l.21,1.46a.29.29,0,0,0,.28.23H6.63a.27.27,0,0,0,.28-.23l.21-1.46a4.29,4.29,0,0,0,1-.54l1.41.55a.28.28,0,0,0,.35-.12L11,7.29a.26.26,0,0,0-.07-.35L9.71,6Z" fill="currentColor"/></svg>
