<svg xmlns="http://www.w3.org/2000/svg" xmlns:xlink="http://www.w3.org/1999/xlink" width="50" height="45" viewBox="0 0 50 45"><defs><path id="x1b2a" d="M350 308.21l-8.35-8.62.72-.69a11 11 0 0 1 11.54-2.34l3.61 3.88zm-21.44-42.48l2.94-2.73 9.52 10.16c-.91.24-1.8.51-2.68.82l6.1 6.54c1-.2 2.02-.36 3.05-.45l3.64 3.88a23.5 23.5 0 0 0-3.42.09l8.62 9.24c1.48.69 2.85 1.62 4.06 2.78l.72.69 1.02-1.05 8.53 9.1-2.93 2.73zm33.57 29.97l-11-11.75c5.55.27 10.78 2.5 14.83 6.36l.73.68zm-22.51.36l-.73.69-5.57-5.76.73-.68c2.6-2.48 5.7-4.3 9.05-5.34l6.45 6.91a15 15 0 0 0-9.93 4.18zM350 272c-3.07 0-6.08.4-8.98 1.16l6.47 6.9a27.07 27.07 0 0 1 21.24 7.38l.72.69 5.55-5.73-.72-.69a35.06 35.06 0 0 0-24.28-9.7zm-9.86 9.8l-5.74-6.16a35.27 35.27 0 0 0-8.68 6.07l-.72.7 5.54 5.72.73-.69c2.6-2.47 5.61-4.37 8.87-5.64z"/></defs><g><g transform="translate(-325 -263)"><use fill="#a6b2bc" xlink:href="#x1b2a"/></g></g></svg>