<svg xmlns="http://www.w3.org/2000/svg" xmlns:xlink="http://www.w3.org/1999/xlink" width="92" height="32" viewBox="0 0 92 32"><defs><path id="80y9a" d="M86.91 30.15h2.92v16.08h-2.92zm-4.54 4.56h2.92v11.53h-2.92zm2.74-4.44c.68.68.68 1.9 0 2.6-.68.7-1.88.7-2.56 0a1.9 1.9 0 0 1 0-2.6c.68-.7 1.88-.7 2.56 0zm-7.7 12.53c.6-.66.9-1.44.9-2.35 0-.9-.3-1.7-.9-2.33a2.91 2.91 0 0 0-2.21-.95c-.9 0-1.64.32-2.24.95-.6.64-.89 1.42-.89 2.33 0 .91.3 1.7.89 2.35.6.63 1.35.95 2.24.95.89 0 1.6-.32 2.21-.95zm-2.23-8.4a5.92 5.92 0 0 1 6.04 6.07 5.93 5.93 0 0 1-6.04 6.07 5.91 5.91 0 0 1-6.04-6.07 5.9 5.9 0 0 1 6.04-6.07zM59 41.37a4.92 4.92 0 0 0 4.06 2.18c1.26 0 2.19-.67 2.19-1.67 0-.63-.46-1.18-1.39-1.63-.18-.09-.59-.25-1.24-.5l-.27-.11c-.78-.32-1.38-.61-1.8-.85-1.6-.95-2.42-2.24-2.42-3.89 0-1.31.48-2.39 1.45-3.26a5.45 5.45 0 0 1 3.77-1.3c1.98 0 3.66.69 5.02 2.1l-1.63 2.3a4.77 4.77 0 0 0-3.35-1.47c-1.22 0-1.97.6-1.97 1.5 0 .62.42 1.13 1.24 1.55l1.52.68c.84.36 1.46.63 1.85.82 1.74.87 2.61 2.16 2.61 3.9a4.3 4.3 0 0 1-1.55 3.42 5.98 5.98 0 0 1-4.05 1.33 6.82 6.82 0 0 1-5.8-2.92zm-4.48-2.06c-.27-1.5-1.33-2.41-2.81-2.41-1.47 0-2.57.9-2.92 2.4zm-5.76 2.2c.42 1.63 1.51 2.45 3.3 2.45a6.9 6.9 0 0 0 3.64-1.16l1.15 2.1a8.03 8.03 0 0 1-4.92 1.58c-1.98 0-3.5-.6-4.55-1.76a6.14 6.14 0 0 1-1.58-4.27 6 6 0 0 1 1.64-4.34 5.61 5.61 0 0 1 4.24-1.71c1.64 0 3 .53 4.06 1.57a5.64 5.64 0 0 1 1.6 4.23c0 .4-.05.84-.11 1.3zm-11.79-1.44v6.18h-2.92V34.72h2.86v1.6a3.97 3.97 0 0 1 3.55-1.92c1.22 0 2.27.42 3.12 1.25.85.82 1.29 2 1.29 3.55v7.05h-2.93V40c0-1.84-.95-2.86-2.38-2.86-1.55 0-2.59 1.2-2.59 2.92zm-12-6.66c-1.34 0-2.46.5-3.39 1.44a4.9 4.9 0 0 0-1.39 3.58c0 1.42.46 2.6 1.37 3.55a4.6 4.6 0 0 0 3.42 1.42 4.79 4.79 0 0 0 4.79-4.97 4.9 4.9 0 0 0-1.4-3.58 4.56 4.56 0 0 0-3.4-1.44zM17 38.48a8 8 0 0 1 7.97-8.15c2.24 0 4.12.78 5.65 2.37a7.89 7.89 0 0 1 2.32 5.73c0 2.25-.77 4.15-2.32 5.72a7.6 7.6 0 0 1-5.67 2.34A7.85 7.85 0 0 1 17 38.47zm75.43-12.73c0-5.87 2.77-9.88 2.77-9.88l.66-.87c.33.16 1.2.4 2.28.7a42.8 42.8 0 0 1 5.55 1.8 9.6 9.6 0 0 1 3.67 2.65 7.83 7.83 0 0 1 1.64 4.98c0 2.18-.94 3.74-1.9 4.63-.45.43-.92.73-1.3.93.43 2.08.44 4.1.44 5.77h-2.76v-.53c0-3.7.02-7.54-4.01-10.8l1.68-2.25a12.86 12.86 0 0 1 3.84 4.98l.07-.06.14-.11a3.18 3.18 0 0 0 1.04-2.56c0-1.46-.41-2.4-1.04-3.18a6.83 6.83 0 0 0-2.58-1.9c-1.08-.47-2.22-.8-3.32-1.11-.76-.22-1.5-.43-2.2-.69-.53.87-1.9 3.36-1.9 7.5 0 2.69.71 3.84 1.33 4.4.62.57 1.36.67 1.64.67.36 0 .97-.28 1.75-.63l.97-.43 1.03 2.6a11 11 0 0 0-.72.36c-.81.42-1.78.92-3.03.92-.76 0-2.2-.22-3.5-1.41-1.28-1.19-2.24-3.26-2.24-6.48z"/></defs><g><g transform="translate(-17 -15)"><use fill="#27ae60" xlink:href="#80y9a"/></g></g></svg>