<svg width="32" height="33" xmlns="http://www.w3.org/2000/svg" xmlns:xlink="http://www.w3.org/1999/xlink" viewBox="0 0 32 32"><defs><path d="M11,32.5c0,-8.83656 7.16344,-16 16,-16c8.83656,0 16,7.16344 16,16c0,8.83656 -7.16344,16 -16,16c-8.83656,0 -16,-7.16344 -16,-16z" id="a"/><path d="M21,32.7409c0,-4.22495 1.98973,-7.11561 1.98973,-7.11561l0.48204,-0.62529c0.23299,0.11648 0.85419,0.28797 1.64037,0.50395c1.22301,0.3357 2.83745,0.77979 3.99892,1.29669c0.95125,0.42509 1.91535,1.00468 2.64007,1.90581c0.72796,0.90153 1.18094,2.12865 1.18094,3.58956c0,1.57249 -0.67942,2.69205 -1.36531,3.33558c-0.33006,0.3098 -0.6665,0.52417 -0.93502,0.66689c0.30406,1.50093 0.31383,2.96227 0.31383,4.16152h-1.98981v-0.38708c0.00646,-2.66904 0.01623,-5.42861 -2.88922,-7.77691l1.21009,-1.61986c1.35561,1.09567 2.22595,2.32684 2.76622,3.58953l0.055,-0.04283c0.03238,-0.02344 0.06145,-0.04531 0.1003,-0.08415c0.36882,-0.34948 0.74742,-0.83802 0.74742,-1.84269c0,-1.052 -0.29768,-1.72704 -0.74742,-2.28681c-0.44975,-0.56017 -1.08709,-1.02085 -1.86358,-1.36625c-0.7765,-0.34703 -1.59507,-0.5808 -2.38771,-0.8069c-0.55005,-0.15692 -1.08709,-0.31021 -1.59183,-0.49546c-0.37852,0.62732 -1.3653,2.41825 -1.3653,5.40031c0,1.93778 0.51443,2.76769 0.96086,3.17663c0.44974,0.40886 0.9771,0.47646 1.18093,0.47646c0.25883,0 0.69889,-0.19947 1.26185,-0.45385c0.21676,-0.09749 0.44967,-0.20302 0.69881,-0.30855l0.74419,1.87426c-0.16507,0.07074 -0.33975,0.16136 -0.52421,0.25761c-0.58235,0.30251 -1.27792,0.66333 -2.18064,0.66333c-0.5435,0 -1.58852,-0.16261 -2.51708,-1.01645c-0.92533,-0.85375 -1.61444,-2.34665 -1.61444,-4.66944z" id="b"/></defs><g transform="translate(-11 -16)"><use xlink:href="#a" fill="#27ae60"/><g><use xlink:href="#b" fill="#fff"/></g></g></svg>
