<svg xmlns="http://www.w3.org/2000/svg" xmlns:xlink="http://www.w3.org/1999/xlink" width="32" height="32" viewBox="0 0 32 32"><defs><path id="wwp5a" d="M11 704a16 16 0 1 1 32 0 16 16 0 0 1-32 0zm10.3 1.44c.35.87.92 1.27 1.18 1.19.26-.09.37-.26.37-.26s.23.91.38 1.36c.48 1.42 2.19 3.04 3.15 3.32.54.15.84.11 1.35 0 .71-.16 2.32-1.45 3.07-3.25.15-.41.3-.75.44-1.48 0-.07.05.11.42.16.36.04.52-.47.89-1.23.68-1.6.58-2.68.12-2.77-.22-.04-.37.07-.52.21-.07 0-.15 0-.15-.07 0-.48.1-1.2.26-2.57.35-3.09-.43-4.08-.43-4.08s-.45.28-2.33-.48a7.84 7.84 0 0 0-4.99-.23c-1.17.37-.9 1.04-.9 1.04s-1.18-.45-1.87.95c-.47.96-.14 2.06.2 3.62.17.77.13 1.54.22 2 0 0-.15.14-.28.02-.12-.12-.47-.45-.67-.45-.23 0-.52.35-.43 1.08.1.72.16 1.05.52 1.92m10.88 5.71l-5.16 2.57-5.17-2.57-3.91 2.04s2.38 4.17 9.06 4.17c6.67 0 9.06-4.17 9.06-4.17z"/></defs><g><g opacity=".41" transform="translate(-11 -688)"><use fill="#a1a1a1" xlink:href="#wwp5a"/></g></g></svg>