<svg xmlns="http://www.w3.org/2000/svg" xmlns:xlink="http://www.w3.org/1999/xlink" width="16" height="20" viewBox="0 0 16 20"><defs><path id="bk9oa" d="M35 119.82c0 5.15-5.2 7.61-5.85 8.19-.67.58-1.22 2.2-1.44 2.94-.1.36-.41.54-.71.55-.3 0-.6-.19-.71-.55-.22-.74-.77-2.36-1.44-2.94-.65-.58-5.85-3.04-5.85-8.19a7.91 7.91 0 0 1 8-7.82c4.42 0 8 3.5 8 7.82zm-8 2.68a2.5 2.5 0 1 0 0-5 2.5 2.5 0 0 0 0 5z"/></defs><g><g transform="translate(-19 -112)"><use fill="currentColor" xlink:href="#bk9oa"/></g></g></svg>
