<svg xmlns="http://www.w3.org/2000/svg" xmlns:xlink="http://www.w3.org/1999/xlink" width="18" height="19" viewBox="0 0 18 19"><defs><path id="wiywa" d="M27 161.5c.35 0 .68.04 1 .09v4.91c0 .28.22.5.5.5a.5.5 0 0 0 .5-.5V165h2v1.5a2.5 2.5 0 0 1-5 0v-4.91c.32-.05.65-.09 1-.09zM26 150v2.06a9 9 0 0 0-8 8.94s1.12-1 2.5-1 2.5 1 2.5 1 1.79-1 4-1 4 1 4 1 1.12-1 2.5-1 2.5 1 2.5 1a9 9 0 0 0-8-8.94V150z"/></defs><g><g transform="translate(-18 -150)"><use fill="currentColor" xlink:href="#wiywa"/></g></g></svg>
