<svg xmlns="http://www.w3.org/2000/svg" xmlns:xlink="http://www.w3.org/1999/xlink" width="16" height="16" viewBox="0 0 16 16"><defs><path id="lzk1a" d="M19 76c0-1.1.9-2 2-2h1.99v4.47c.57.14 1.1.3 1.6.5V74h1.59v7.1c.5-.46 1.04-.89 1.6-1.26V74h1.59v4.94c.52-.28 1.05-.55 1.6-.8V74h1.99a2 2 0 0 1 2 2v1.19c.08 0 0 1.72 0 1.72s-4.96.61-7.95 3.45C24 85.19 23.2 90 23.2 90H21a2 2 0 0 1-2-2v-1.02c.8.16 1.76.47 2.41 1.08.14.13.27.26.38.4.15-.61.35-1.16.59-1.7A6.3 6.3 0 0 0 19 85.32v-1.57c.73.1 1.61.28 2.38.6.67.27 1.26.65 1.71 1l.44-.8c.1-.21.23-.42.35-.63a9.86 9.86 0 0 0-4.88-1.8v-1.57c.9.1 2.02.3 3 .6 1.04.34 2.05.96 2.8 1.47.33-.42.69-.82 1.07-1.2a11.94 11.94 0 0 0-3.29-1.7 17.02 17.02 0 0 0-3.56-.8H19zm15.96 12a2 2 0 0 1-2 2h-1.62c.24-.66.62-1.4 1.21-1.94.66-.6 1.6-.92 2.41-1.08zm-6.9 2c.33-1.3 1-3.09 2.31-4.27 1.34-1.19 3.24-1.72 4.59-1.95v1.54a6.3 6.3 0 0 0-2.32.73 5.8 5.8 0 0 0-2.41 2.42c-.25.46-.46.92-.62 1.53zm-3.21 0c.38-1.8 1.26-4.7 3.24-6.54 2-1.87 5.03-2.6 6.87-2.88v1.54c-1.77.2-2.83.6-3.87 1.16a8.72 8.72 0 0 0-3.63 3.63 9.7 9.7 0 0 0-1.1 3.09z"/></defs><g><g transform="translate(-19 -74)"><use fill="currentColor" xlink:href="#lzk1a"/></g></g></svg>
